<svg xmlns="http://www.w3.org/2000/svg" version="1.1" xmlns:xlink="http://www.w3.org/1999/xlink" xmlns:svgjs="http://svgjs.dev/svgjs" width="1500" height="1500" viewBox="0 0 1500 1500"><rect width="1500" height="1500" fill="#ebe3d6"></rect><g transform="matrix(0.6666666666666666,0,0,0.6666666666666666,248.4427725856698,189.33333333333348)"><svg viewBox="0 0 321 360" data-background-color="#ebe3d6" preserveAspectRatio="xMidYMid meet" height="1682" width="1500" xmlns="http://www.w3.org/2000/svg" xmlns:xlink="http://www.w3.org/1999/xlink"><g id="tight-bounds" transform="matrix(1,0,0,1,0.49986999999998716,0)"><svg viewBox="0 0 320 360" height="360" width="320"><g><svg></svg></g><g><svg viewBox="0 0 320 360" height="360" width="320"><g><path transform="translate(-40.79862,-27.54029) scale(4.05392,4.05392)" d="M89 41.809l-4.923-4.923v-6.962l-13.274-13.274h-6.962l-4.923-4.923h-18.772l-4.923 4.923h-6.962l-13.274 13.274v6.962l-4.923 4.923v18.773l4.923 4.923v6.962l13.275 13.273h6.962l4.923 4.923h18.773l4.923-4.923h6.962l13.274-13.274v-6.962l4.921-4.923zM70.345 17.755l12.627 12.627v5.399l-18.026-18.026zM82.972 37.344v27.703l-19.588 19.588h-27.703l-19.589-19.589v-27.702l19.589-19.589h27.703zM40.604 12.832h17.857l3.818 3.818h-25.493zM16.092 30.382l12.627-12.627h5.399l-18.026 18.026zM11.17 60.124v-17.858l3.818-3.818v25.492zM28.719 84.635l-12.627-12.627v-5.399l18.026 18.026zM58.461 89.558h-17.857l-3.818-3.818h25.492zM82.972 72.008l-12.627 12.627h-5.399l18.026-18.026zM87.895 60.124l-3.818 3.818v-25.493l3.818 3.818z" fill="#505050" fill-rule="nonzero" stroke="none" stroke-width="1" stroke-linecap="butt" stroke-linejoin="miter" stroke-miterlimit="10" stroke-dasharray="" stroke-dashoffset="0" font-family="none" font-weight="none" font-size="none" text-anchor="none" style="mix-blend-mode: normal" data-fill-palette-color="tertiary"></path></g><g transform="matrix(1,0,0,1,56,144.36397018891614)"><svg viewBox="0 0 208 71.27205962216772" height="71.27205962216772" width="208"><g><svg viewBox="0 0 352.8970736418156 120.92164073599997" height="71.27205962216772" width="208"><g transform="matrix(1,0,0,1,143.85707364181567,15.810951554361743)"><svg viewBox="0 0 209.03999999999996 89.29973762727649" height="89.29973762727649" width="209.03999999999996"><g id="textblocktransform"><svg viewBox="0 0 209.03999999999996 89.29973762727649" height="89.29973762727649" width="209.03999999999996" id="textblock"><g><rect width="209.03999999999996" height="5.604075091173592" x="0" y="68.74416257760662" fill="#505050" opacity="1" stroke-width="0" stroke="transparent" fill-opacity="1" class="rect-yte-0" data-fill-palette-color="primary" rx="1%" id="yte-0" data-palette-color="#505050"></rect></g><g transform="matrix(1,0,0,1,0.5199999999999818,0)"><svg viewBox="0 0 208 62.14250343878956" height="62.14250343878956" width="208"><g transform="matrix(1,0,0,1,0,0)"><svg width="208" viewBox="1.03 -40.34 136.29 40.730000000000004" height="62.14250343878956" data-palette-color="#505050"><path d="M1.81 0L1.03 0 5.45-40 12.36-40 16.79 0 16 0 11.68-39.36 6.14-39.36 1.81 0ZM4.91 0L4.13 0 5.39-11.94 12.43-11.94 13.69 0 12.9 0 11.79-11.3 6.03-11.3 4.91 0ZM3.35 0L2.56 0 6.61-38.71 11.2-38.71 15.25 0 14.45 0 13.14-12.58 4.67-12.58 3.35 0ZM5.8-24.08L4.71-13.21 13.08-13.21 11.99-24.08 10.51-38.06 7.29-38.06 5.8-24.08ZM12.24-13.85L5.58-13.85 6.55-24.08 7.84-37.46 9.96-37.46 11.29-24.08 12.24-13.85ZM7.25-24.08L6.39-14.49 11.43-14.49 10.56-24.08 9.38-36.81 8.44-36.81 7.25-24.08ZM26.85 0L20.37 0 20.37-40 26.72-40Q28.95-40 30.53-39.39 32.11-38.78 32.97-37.23 33.82-35.69 33.85-32.85L33.85-32.85Q33.87-31.44 33.88-30.13 33.9-28.83 33.88-27.67 33.86-26.51 33.81-25.54L33.81-25.54Q33.69-23.71 33-22.38 32.31-21.04 30.73-20.29L30.73-20.29 30.73-20.15Q32.26-19.45 33.07-17.99 33.88-16.53 33.98-14.4L33.98-14.4Q34.02-13.74 34.04-12.83 34.06-11.93 34.05-10.89 34.05-9.85 34.02-8.78 33.98-7.71 33.94-6.71L33.94-6.71Q33.77-4.1 32.91-2.64 32.05-1.18 30.53-0.59 29.01 0 26.85 0L26.85 0ZM21.15-39.33L21.15-0.69 26.85-0.69Q29.75-0.69 31.34-1.94 32.92-3.2 33.16-6.71L33.16-6.71Q33.23-7.81 33.26-9.26 33.28-10.7 33.28-12.08 33.27-13.45 33.22-14.36L33.22-14.36Q33.1-16.59 32.3-17.99 31.51-19.4 29.73-20.11L29.73-20.11 29.73-20.3Q31.51-21.03 32.22-22.35 32.92-23.68 33.03-25.56L33.03-25.56Q33.1-26.51 33.11-27.63 33.12-28.74 33.12-30.04 33.11-31.34 33.09-32.84L33.09-32.84Q33.05-35.38 32.31-36.78 31.57-38.19 30.17-38.76 28.76-39.33 26.72-39.33L26.72-39.33 21.15-39.33ZM26.85-1.36L21.91-1.36 21.91-38.64 26.72-38.64Q28.51-38.64 29.75-38.14 30.98-37.64 31.63-36.39 32.28-35.14 32.31-32.84L32.31-32.84Q32.35-31 32.35-29.71 32.35-28.43 32.33-27.44 32.31-26.46 32.27-25.55L32.27-25.55Q32.19-23.6 31.39-22.23 30.6-20.86 28.57-20.25L28.57-20.25 28.57-20.15Q30.56-19.53 31.43-18.12 32.31-16.71 32.45-14.33L32.45-14.33Q32.5-13.51 32.51-12.17 32.52-10.83 32.5-9.38 32.47-7.93 32.41-6.74L32.41-6.74Q32.25-3.64 30.85-2.5 29.46-1.36 26.85-1.36L26.85-1.36ZM22.68-37.96L22.68-20.5 26.35-20.5Q28.66-20.5 30-21.53 31.35-22.56 31.5-25.56L31.5-25.56Q31.55-26.46 31.57-27.5 31.59-28.54 31.59-29.84 31.59-31.15 31.55-32.84L31.55-32.84Q31.51-35.91 30.26-36.94 29.01-37.96 26.72-37.96L26.72-37.96 22.68-37.96ZM26.35-21.19L23.45-21.19 23.45-37.27 26.72-37.27Q28.61-37.27 29.67-36.41 30.73-35.55 30.77-32.84L30.77-32.84Q30.81-31.04 30.82-29.73 30.82-28.41 30.8-27.42 30.79-26.43 30.73-25.58L30.73-25.58Q30.6-22.95 29.46-22.07 28.32-21.19 26.35-21.19L26.35-21.19ZM24.22-36.6L24.22-21.86 26.35-21.86Q27.95-21.86 28.89-22.59 29.84-23.31 29.96-25.58L29.96-25.58Q30.04-26.91 30.04-28.67 30.05-30.43 30.01-32.84L30.01-32.84Q29.97-35.2 29.1-35.9 28.22-36.6 26.72-36.6L26.72-36.6 24.22-36.6ZM22.68-19.81L22.68-2.05 26.85-2.05Q29.17-2.05 30.35-3.06 31.52-4.08 31.65-6.74L31.65-6.74Q31.7-7.81 31.72-9.25 31.75-10.69 31.74-12.06 31.73-13.44 31.68-14.3L31.68-14.3Q31.51-17.48 30.2-18.64 28.9-19.81 26.51-19.81L26.51-19.81 22.68-19.81ZM26.85-2.73L23.45-2.73 23.45-19.14 26.51-19.14Q28.38-19.14 29.57-18.18 30.75-17.23 30.91-14.25L30.91-14.25Q30.97-13.43 30.98-12.11 30.98-10.79 30.95-9.35 30.92-7.91 30.87-6.73L30.87-6.73Q30.76-4.38 29.75-3.55 28.73-2.73 26.85-2.73L26.85-2.73ZM24.22-18.45L24.22-3.41 26.85-3.41Q28.37-3.41 29.2-4.08 30.04-4.74 30.11-6.73L30.11-6.73Q30.17-8.6 30.19-10.04 30.21-11.48 30.2-12.51 30.18-13.54 30.15-14.2L30.15-14.2Q29.98-16.75 29.06-17.6 28.13-18.45 26.51-18.45L26.51-18.45 24.22-18.45ZM45.25 0.39L45.25 0.39Q41.55 0.39 39.93-1.25 38.31-2.89 38.26-6.63L38.26-6.63Q38.18-11.14 38.16-15.73 38.15-20.33 38.17-24.79 38.2-29.26 38.26-33.34L38.26-33.34Q38.31-37.1 39.92-38.72 41.53-40.34 45.18-40.34L45.18-40.34Q48.77-40.34 50.46-38.74 52.15-37.15 52.26-33.34L52.26-33.34Q52.28-32.73 52.29-31.76 52.3-30.8 52.29-29.72 52.28-28.64 52.27-27.64 52.26-26.64 52.23-25.96L52.23-25.96 51.47-25.96Q51.5-26.81 51.51-28.26 51.52-29.7 51.51-31.12 51.51-32.54 51.48-33.33L51.48-33.33Q51.38-36.83 49.87-38.26 48.36-39.7 45.18-39.7L45.18-39.7Q41.9-39.7 40.48-38.22 39.07-36.74 39.02-33.33L39.02-33.33Q38.96-28.88 38.94-24.4 38.92-19.93 38.94-15.47 38.96-11.01 39.02-6.64L39.02-6.64Q39.07-3.21 40.51-1.73 41.96-0.25 45.23-0.25L45.23-0.25Q48.53-0.25 50.05-1.71 51.57-3.18 51.68-6.65L51.68-6.65Q51.75-8.43 51.75-10.46 51.75-12.5 51.66-14.5L51.66-14.5 52.43-14.5Q52.48-12.73 52.5-10.64 52.52-8.56 52.46-6.63L52.46-6.63Q52.33-2.85 50.64-1.23 48.95 0.39 45.25 0.39ZM45.23-0.89L45.23-0.89Q42.36-0.89 41.1-2.21 39.84-3.54 39.8-6.68L39.8-6.68Q39.73-11.08 39.71-15.55 39.68-20.03 39.71-24.5 39.73-28.98 39.8-33.33L39.8-33.33Q39.83-36.45 41.09-37.76 42.34-39.06 45.18-39.06L45.18-39.06Q48.02-39.06 49.32-37.76 50.62-36.46 50.72-33.31L50.72-33.31Q50.75-32.77 50.75-31.81 50.76-30.84 50.75-29.73 50.73-28.63 50.73-27.61 50.72-26.6 50.7-25.96L50.7-25.96 49.93-25.96Q49.97-27.11 49.98-28.51 49.98-29.91 49.98-31.21 49.97-32.5 49.95-33.29L49.95-33.29Q49.87-36.01 48.79-37.22 47.71-38.43 45.18-38.43L45.18-38.43Q42.72-38.43 41.66-37.26 40.59-36.1 40.56-33.33L40.56-33.33Q40.5-28.98 40.48-24.52 40.46-20.06 40.48-15.58 40.5-11.09 40.56-6.64L40.56-6.64Q40.59-3.85 41.68-2.69 42.77-1.53 45.23-1.53L45.23-1.53Q47.75-1.53 48.9-2.69 50.05-3.86 50.15-6.69L50.15-6.69Q50.2-7.86 50.2-9.13 50.2-10.39 50.18-11.73 50.17-13.08 50.12-14.5L50.12-14.5 50.9-14.5Q50.93-13.31 50.95-11.98 50.97-10.64 50.96-9.28 50.96-7.91 50.92-6.65L50.92-6.65Q50.81-3.46 49.45-2.18 48.09-0.89 45.23-0.89ZM45.23-2.16L45.23-2.16Q43.15-2.16 42.26-3.18 41.37-4.19 41.33-6.65L41.33-6.65Q41.27-10.94 41.25-15.46 41.22-19.99 41.25-24.51 41.27-29.04 41.33-33.33L41.33-33.33Q41.37-35.77 42.25-36.78 43.12-37.79 45.18-37.79L45.18-37.79Q47.26-37.79 48.18-36.76 49.11-35.73 49.18-33.29L49.18-33.29Q49.21-32.35 49.21-31.08 49.22-29.81 49.21-28.47 49.2-27.13 49.16-25.96L49.16-25.96 48.4-25.96Q48.43-27.13 48.44-28.54 48.45-29.95 48.44-31.22 48.43-32.49 48.41-33.23L48.41-33.23Q48.36-35.35 47.64-36.25 46.92-37.15 45.18-37.15L45.18-37.15Q43.51-37.15 42.82-36.3 42.13-35.45 42.09-33.31L42.09-33.31Q42.02-28.79 41.99-24.35 41.96-19.91 41.99-15.51 42.02-11.11 42.09-6.65L42.09-6.65Q42.13-4.53 42.84-3.66 43.55-2.8 45.23-2.8L45.23-2.8Q46.95-2.8 47.74-3.66 48.53-4.51 48.61-6.74L48.61-6.74Q48.67-8.33 48.66-10.45 48.65-12.58 48.58-14.5L48.58-14.5 49.36-14.5Q49.41-12.73 49.43-10.63 49.45-8.53 49.38-6.71L49.38-6.71Q49.28-4.23 48.34-3.19 47.4-2.16 45.23-2.16ZM73.75 0L67.28 0 67.28-40 73.63-40Q75.85-40 77.43-39.39 79.02-38.78 79.87-37.23 80.73-35.69 80.75-32.85L80.75-32.85Q80.78-31.44 80.79-30.13 80.8-28.83 80.78-27.67 80.77-26.51 80.72-25.54L80.72-25.54Q80.59-23.71 79.9-22.38 79.22-21.04 77.64-20.29L77.64-20.29 77.64-20.15Q79.17-19.45 79.98-17.99 80.79-16.53 80.89-14.4L80.89-14.4Q80.93-13.74 80.95-12.83 80.97-11.93 80.96-10.89 80.95-9.85 80.92-8.78 80.89-7.71 80.84-6.71L80.84-6.71Q80.68-4.1 79.81-2.64 78.95-1.18 77.43-0.59 75.92 0 73.75 0L73.75 0ZM68.05-39.33L68.05-0.69 73.75-0.69Q76.65-0.69 78.24-1.94 79.83-3.2 80.06-6.71L80.06-6.71Q80.14-7.81 80.17-9.26 80.19-10.7 80.18-12.08 80.18-13.45 80.13-14.36L80.13-14.36Q80-16.59 79.21-17.99 78.42-19.4 76.64-20.11L76.64-20.11 76.64-20.3Q78.42-21.03 79.12-22.35 79.83-23.68 79.94-25.56L79.94-25.56Q80-26.51 80.02-27.63 80.03-28.74 80.02-30.04 80.02-31.34 79.99-32.84L79.99-32.84Q79.95-35.38 79.22-36.78 78.48-38.19 77.07-38.76 75.67-39.33 73.63-39.33L73.63-39.33 68.05-39.33ZM73.75-1.36L68.81-1.36 68.81-38.64 73.63-38.64Q75.42-38.64 76.65-38.14 77.89-37.64 78.54-36.39 79.19-35.14 79.22-32.84L79.22-32.84Q79.25-31 79.25-29.71 79.25-28.43 79.23-27.44 79.22-26.46 79.18-25.55L79.18-25.55Q79.09-23.6 78.3-22.23 77.5-20.86 75.48-20.25L75.48-20.25 75.48-20.15Q77.47-19.53 78.34-18.12 79.22-16.71 79.35-14.33L79.35-14.33Q79.4-13.51 79.42-12.17 79.43-10.83 79.4-9.38 79.38-7.93 79.31-6.74L79.31-6.74Q79.15-3.64 77.76-2.5 76.37-1.36 73.75-1.36L73.75-1.36ZM69.59-37.96L69.59-20.5 73.25-20.5Q75.56-20.5 76.91-21.53 78.25-22.56 78.4-25.56L78.4-25.56Q78.45-26.46 78.47-27.5 78.49-28.54 78.49-29.84 78.49-31.15 78.45-32.84L78.45-32.84Q78.42-35.91 77.17-36.94 75.92-37.96 73.63-37.96L73.63-37.96 69.59-37.96ZM73.25-21.19L70.35-21.19 70.35-37.27 73.63-37.27Q75.52-37.27 76.58-36.41 77.64-35.55 77.68-32.84L77.68-32.84Q77.72-31.04 77.72-29.73 77.73-28.41 77.71-27.42 77.69-26.43 77.64-25.58L77.64-25.58Q77.5-22.95 76.37-22.07 75.23-21.19 73.25-21.19L73.25-21.19ZM71.13-36.6L71.13-21.86 73.25-21.86Q74.85-21.86 75.8-22.59 76.74-23.31 76.87-25.58L76.87-25.58Q76.94-26.91 76.95-28.67 76.95-30.43 76.92-32.84L76.92-32.84Q76.88-35.2 76-35.9 75.13-36.6 73.63-36.6L73.63-36.6 71.13-36.6ZM69.59-19.81L69.59-2.05 73.75-2.05Q76.08-2.05 77.25-3.06 78.43-4.08 78.55-6.74L78.55-6.74Q78.6-7.81 78.63-9.25 78.65-10.69 78.65-12.06 78.64-13.44 78.59-14.3L78.59-14.3Q78.42-17.48 77.11-18.64 75.8-19.81 73.42-19.81L73.42-19.81 69.59-19.81ZM73.75-2.73L70.35-2.73 70.35-19.14 73.42-19.14Q75.29-19.14 76.47-18.18 77.65-17.23 77.81-14.25L77.81-14.25Q77.88-13.43 77.88-12.11 77.89-10.79 77.86-9.35 77.83-7.91 77.78-6.73L77.78-6.73Q77.67-4.38 76.65-3.55 75.64-2.73 73.75-2.73L73.75-2.73ZM71.13-18.45L71.13-3.41 73.75-3.41Q75.28-3.41 76.11-4.08 76.94-4.74 77.02-6.73L77.02-6.73Q77.08-8.6 77.1-10.04 77.12-11.48 77.1-12.51 77.09-13.54 77.05-14.2L77.05-14.2Q76.89-16.75 75.97-17.6 75.04-18.45 73.42-18.45L73.42-18.45 71.13-18.45ZM98.64 0L97.88 0 97.88-23.3Q97.88-26.74 96.56-28.23 95.24-29.73 92.19-29.73L92.19-29.73Q89.04-29.73 87.63-28.39 86.21-27.05 86.09-23.98L86.09-23.98Q86.05-22.99 86.06-21.85 86.08-20.71 86.14-19.61L86.14-19.61 85.38-19.61Q85.31-20.75 85.3-21.84 85.29-22.94 85.33-24L85.33-24Q85.44-27.41 87.04-28.89 88.65-30.36 92.19-30.36L92.19-30.36Q94.5-30.36 95.92-29.64 97.34-28.93 97.99-27.38 98.64-25.83 98.64-23.3L98.64-23.3 98.64 0ZM90.94-1.51L90.94-1.51Q92.61-1.51 93.81-2.4 95.01-3.29 95.66-4.62 96.31-5.95 96.31-7.28L96.31-7.28 96.31-16.54Q95.18-16.16 93.79-15.6 92.41-15.04 91.17-14.39L91.17-14.39Q89.11-13.29 88.13-11.76 87.14-10.24 87.04-7.75L87.04-7.75Q87.01-7.21 87.04-6.73 87.06-6.24 87.1-5.71L87.1-5.71Q87.24-3.64 88.25-2.58 89.26-1.51 90.94-1.51ZM91.1-2.19L91.1-2.19Q89.64-2.19 88.83-3.19 88.03-4.19 87.86-5.76L87.86-5.76Q87.81-6.33 87.8-6.83 87.79-7.33 87.8-7.7L87.8-7.7Q87.91-9.96 88.76-11.36 89.61-12.76 91.44-13.8L91.44-13.8Q92.31-14.3 93.4-14.81 94.49-15.33 95.55-15.73L95.55-15.73 95.55-7.2Q95.55-5.95 95.07-4.8 94.59-3.65 93.61-2.92 92.63-2.19 91.1-2.19ZM91.2-2.81L91.2-2.81Q92.44-2.81 93.23-3.44 94.01-4.06 94.39-5.06 94.78-6.05 94.78-7.15L94.78-7.15 94.78-14.86Q93.94-14.5 93.18-14.09 92.42-13.69 91.7-13.21L91.7-13.21Q90.1-12.21 89.37-10.99 88.64-9.76 88.58-7.7L88.58-7.7Q88.56-7.26 88.57-6.8 88.58-6.34 88.63-5.84L88.63-5.84Q88.74-4.56 89.38-3.69 90.03-2.81 91.2-2.81ZM90.28 0.38L90.28 0.38Q87.81 0.38 86.4-1.17 84.99-2.71 84.79-5.53L84.79-5.53Q84.75-6.24 84.74-6.91 84.73-7.58 84.74-8.03L84.74-8.03Q84.91-10.73 86.13-12.68 87.35-14.64 90.33-16.16L90.33-16.16Q91.19-16.64 91.89-17 92.6-17.36 93.29-17.67 93.99-17.98 94.8-18.26L94.8-18.26 94.8-23.3Q94.8-25.18 94.26-26.18 93.73-27.18 92.19-27.18L92.19-27.18Q90.58-27.18 89.9-26.37 89.23-25.56 89.16-23.84L89.16-23.84Q89.14-23.11 89.14-22.05 89.14-20.99 89.19-19.61L89.19-19.61 88.42-19.61Q88.38-21.06 88.38-22.07 88.38-23.08 88.4-23.9L88.4-23.9Q88.46-26.03 89.37-26.92 90.28-27.81 92.19-27.81L92.19-27.81Q94.13-27.81 94.84-26.68 95.56-25.54 95.56-23.3L95.56-23.3 95.56-17.74Q94.16-17.26 92.95-16.71 91.74-16.15 90.59-15.56L90.59-15.56Q87.84-14.16 86.75-12.33 85.66-10.5 85.51-7.96L85.51-7.96Q85.49-7.39 85.5-6.82 85.51-6.25 85.56-5.59L85.56-5.59Q85.74-3 87.02-1.63 88.3-0.25 90.49-0.25L90.49-0.25Q92.41-0.25 93.74-1.2 95.06-2.15 95.79-3.63L95.79-3.63 95.96-3.63 95.65-0.66 95.65 0 94.88 0 94.88-0.23 95.33-2.3 95.19-2.3Q94.34-1.03 93.14-0.33 91.95 0.38 90.28 0.38ZM97.1 0L96.35 0 96.35-1.86 96.48-5.35 96.31-5.35Q95.66-3.44 94.26-2.16 92.86-0.89 90.69-0.89L90.69-0.89Q88.79-0.89 87.64-2.11 86.49-3.33 86.33-5.64L86.33-5.64Q86.29-6.3 86.27-6.84 86.25-7.38 86.28-7.89L86.28-7.89Q86.41-10.28 87.39-11.99 88.38-13.71 90.89-14.98L90.89-14.98Q91.8-15.44 92.78-15.86 93.76-16.28 94.69-16.62 95.61-16.96 96.34-17.19L96.34-17.19 96.34-23.3Q96.34-26.06 95.38-27.26 94.43-28.45 92.19-28.45L92.19-28.45Q89.84-28.45 88.78-27.4 87.71-26.35 87.63-23.91L87.63-23.91Q87.59-22.94 87.6-21.81 87.61-20.69 87.66-19.61L87.66-19.61 86.9-19.61Q86.85-20.73 86.84-21.86 86.83-23 86.86-23.94L86.86-23.94Q86.96-26.7 88.2-27.89 89.44-29.09 92.19-29.09L92.19-29.09Q94.83-29.09 95.96-27.74 97.1-26.4 97.1-23.3L97.1-23.3 97.1 0ZM118.05 0L117.29 0 117.29-23.34Q117.29-24.31 117.15-25.42 117.01-26.53 116.5-27.49 116-28.46 114.94-29.08 113.87-29.7 112.04-29.7L112.04-29.7Q110.16-29.7 108.84-28.84 107.51-27.99 106.66-26.39L106.66-26.39 106.44-26.39 106.77-30 107.55-30 107.56-29.68 107.1-27.7 107.25-27.7Q108.07-28.98 109.31-29.68 110.55-30.38 112.25-30.38L112.25-30.38Q113.96-30.38 115.05-29.89 116.14-29.4 116.75-28.61 117.37-27.81 117.65-26.88 117.92-25.95 117.99-25.06 118.05-24.16 118.05-23.46L118.05-23.46 118.05 0ZM104.57 0L103.8 0 103.8-30 104.57-30 104.57 0ZM107.69 0L106.89 0 106.89-22.8Q106.89-24.06 107.38-25.14 107.87-26.23 108.89-26.9 109.9-27.58 111.41-27.58L111.41-27.58Q112.66-27.58 113.38-27.16 114.1-26.75 114.44-26.08 114.79-25.41 114.89-24.63 114.99-23.84 114.99-23.08L114.99-23.08 114.99 0 114.21 0 114.21-23.04Q114.21-23.88 114.07-24.77 113.94-25.66 113.32-26.28 112.71-26.89 111.31-26.89L111.31-26.89Q110.09-26.89 109.28-26.34 108.47-25.79 108.08-24.88 107.69-23.96 107.69-22.86L107.69-22.86 107.69 0ZM106.11 0L105.34 0 105.34-30 106.1-30 105.94-24.66 106.14-24.66Q106.82-26.64 108.25-27.83 109.69-29.01 111.84-29L111.84-29Q114.44-28.99 115.47-27.53 116.51-26.06 116.51-23.29L116.51-23.29 116.51 0 115.75 0 115.75-23.2Q115.75-25.59 114.89-26.95 114.02-28.31 111.57-28.31L111.57-28.31Q109.75-28.31 108.53-27.47 107.31-26.63 106.71-25.34 106.11-24.06 106.11-22.74L106.11-22.74 106.11 0ZM125.52 0L124.75 0 124.75-40 125.52-40 125.52-26.5 125.38-12.53 125.82-12.53 131.92-26.09 133.65-30 134.5-30 129.19-18.09 135.76 0 134.94 0 128.71-17.26 125.52-10.66 125.52 0ZM127.06 0L126.28 0 126.28-10.66 128.58-15.58 134.21 0 133.38 0 128.47-13.76 127.06-10.46 127.06 0ZM123.98 0L123.21 0 123.21-40 123.98-40 123.98 0ZM137.32 0L136.5 0 129.96-18.09 135.3-30 136.17-30 130.81-18.05 137.32 0ZM126.11-14.25L125.8-14.25 126.28-27.06 126.28-40 127.06-40 127.06-27.65 126.46-16.95 126.73-16.95 130.94-27.45 131.93-30 132.82-30 131.52-26.86 126.11-14.25Z" opacity="1" transform="matrix(1,0,0,1,0,0)" fill="#505050" class="wordmark-text-0" data-fill-palette-color="primary" id="text-0"></path></svg></g></svg></g><g transform="matrix(1,0,0,1,0,80.94989680759727)"><svg viewBox="0 0 183.768 8.349840819679219" height="8.349840819679219" width="183.768"><g transform="matrix(1,0,0,1,0,0)"><svg width="183.768" viewBox="2.55 -38.6 1156.44 52.55" height="8.349840819679219" data-palette-color="#505050"><path d="M30.85-8.1L30.85 0 2.55 0 2.55-2.2 7.1-3.85 7.1-31.45 2.55-33.1 2.55-35.3 30.85-35.3 30.85-27.2 28.25-27.2 26.6-31.5 12.15-31.5 12.15-19.6 23.65-19.6 24.6-22.5 26.9-22.5 26.9-12.65 24.6-12.65 23.65-16 12.15-16 12.15-3.8 26.6-3.8 28.25-8.1 30.85-8.1ZM81.7-2.15L81.7 0 68.55 0 68.55-2.15 72.55-3.8 72.55-15.75Q72.55-18.7 71.57-20.15 70.6-21.6 68.05-21.6L68.05-21.6Q64.05-21.6 61.2-18.75L61.2-18.75Q61.35-18.15 61.35-17.5L61.35-17.5 61.35-3.8 65.8-2.15 65.8 0 52.65 0 52.65-2.15 56.65-3.8 56.65-15.75Q56.65-18.7 55.67-20.15 54.7-21.6 52.15-21.6L52.15-21.6Q48.05-21.6 44.8-18.35L44.8-18.35 44.8-3.8 49.05-2.15 49.05 0 35.9 0 35.9-2.15 40.1-3.8 40.1-21.65 35.9-21.65 35.9-24.65Q37.85-25.6 40.35-25.6 42.85-25.6 43.77-24.5 44.7-23.4 44.8-21.2L44.8-21.2Q45.5-22.1 46.9-23.25L46.9-23.25Q49.85-25.6 53.55-25.6L53.55-25.6Q59.05-25.6 60.75-21.2L60.75-21.2Q64.4-25.6 69.45-25.6L69.45-25.6Q73.35-25.6 75.3-23.43 77.25-21.25 77.25-17.5L77.25-17.5 77.25-3.8 81.7-2.15ZM97.05 11.4L97.05 13.55 83.9 13.55 83.9 11.4 88.15 9.75 88.15-21.85 83.95-21.85 83.95-24.6Q85.9-25.55 88.22-25.55 90.55-25.55 91.55-24.7 92.55-23.85 92.75-22.2L92.75-22.2Q95.2-25.6 100.05-25.6L100.05-25.6Q104-25.6 107.34-22.9L107.34-22.9Q109.05-21.5 110.07-18.93 111.09-16.35 111.09-12.95 111.09-9.55 109.95-6.88 108.8-4.2 106.84-2.65L106.84-2.65Q102.9 0.5 97.65 0.5L97.65 0.5Q95.55 0.5 92.84-0.2L92.84-0.2 92.84 9.75 97.05 11.4ZM97.65-3.45L97.65-3.45Q101.7-3.45 103.97-5.85 106.25-8.25 106.25-12.55 106.25-16.85 104.05-19.28 101.84-21.7 99.34-21.7L99.34-21.7Q95-21.7 92.84-18.95L92.84-18.95 92.84-4.35Q95.65-3.45 97.65-3.45ZM137.79-3.08Q134.14 0.55 128.59 0.55 123.04 0.55 119.39-3.08 115.74-6.7 115.74-12.5 115.74-18.3 119.39-21.95 123.04-25.6 128.59-25.6 134.14-25.6 137.79-21.95 141.44-18.3 141.44-12.5 141.44-6.7 137.79-3.08ZM122.84-5.83Q125.09-3.4 128.59-3.4 132.09-3.4 134.34-5.83 136.59-8.25 136.59-12.35 136.59-16.45 134.32-19.05 132.04-21.65 128.59-21.65 125.14-21.65 122.87-19.05 120.59-16.45 120.59-12.35 120.59-8.25 122.84-5.83ZM143.09-22.75L143.09-24.95 155.84-24.95 155.84-22.75 152.44-21.55 157.79-4.7 162.94-21.55 159.54-22.75 159.54-24.95 172.29-24.95 172.29-22.75 168.34-21.45 173.69-4.75 178.84-21.55 175.44-22.75 175.44-24.95 187.94-24.95 187.94-22.75 183.94-21.45 176.19 0 171.19 0 165.54-16.7 160.29 0 155.29 0 147.09-21.45 143.09-22.75ZM203.34 0.5L203.34 0.5Q197.69 0.5 194.16-2.73 190.64-5.95 190.64-12.15 190.64-18.35 194.24-21.98 197.84-25.6 202.64-25.6L202.64-25.6Q214.04-25.6 214.04-12.1L214.04-12.1 195.49-12.1 195.49-11.85Q195.49-8.3 197.99-5.85 200.49-3.4 204.79-3.4L204.79-3.4Q206.64-3.4 208.29-3.83 209.94-4.25 210.69-4.7L210.69-4.7 211.39-5.1 212.84-2.5Q212.69-2.4 212.41-2.18 212.14-1.95 211.24-1.45 210.34-0.95 209.29-0.55L209.29-0.55Q206.64 0.5 203.34 0.5ZM209.39-15.3Q209.14-18.4 207.36-20.03 205.59-21.65 202.76-21.65 199.94-21.65 198.09-20.08 196.24-18.5 195.69-15.3L195.69-15.3 209.39-15.3ZM231.23-2.15L231.23 0 218.09 0 218.09-2.15 222.28-3.8 222.28-21.65 218.09-21.65 218.09-24.65Q220.03-25.6 222.48-25.6 224.94-25.6 225.88-24.55 226.84-23.5 226.94-21.45L226.94-21.45Q227.44-22.95 228.98-24.15L228.98-24.15Q230.84-25.6 233.88-25.6L233.88-25.6Q235.24-25.6 236.46-25.25 237.69-24.9 238.24-24.55L238.24-24.55 238.84-24.2 238.84-18.3 235.84-18.3 235.19-21.3Q234.88-21.6 233.53-21.6 232.19-21.6 230.94-21.23 229.69-20.85 228.98-20.3L228.98-20.3Q227.59-19.1 226.98-17.85L226.98-17.85 226.98-3.8 231.23-2.15ZM255.18-2.15L255.18 0 242.03 0 242.03-2.15 246.23-3.8 246.23-21.65 242.03-21.65 242.03-24.65Q243.98-25.6 246.56-25.6 249.13-25.6 250.03-24.38 250.93-23.15 250.93-20.65L250.93-20.65 250.93-3.8 255.18-2.15ZM251.13-31.35Q249.98-30.2 248.33-30.2 246.68-30.2 245.53-31.35 244.38-32.5 244.38-34.15 244.38-35.8 245.53-36.95 246.68-38.1 248.33-38.1 249.98-38.1 251.13-36.95 252.28-35.8 252.28-34.15 252.28-32.5 251.13-31.35ZM288.43-2.15L288.43 0 275.28 0 275.28-2.15 279.28-3.8 279.28-15.75Q279.28-18.7 278.31-20.15 277.33-21.6 274.78-21.6L274.78-21.6Q270.68-21.6 267.43-18.35L267.43-18.35 267.43-3.8 271.68-2.15 271.68 0 258.53 0 258.53-2.15 262.73-3.8 262.73-21.65 258.53-21.65 258.53-24.65Q260.48-25.6 262.98-25.6 265.48-25.6 266.41-24.5 267.33-23.4 267.43-21.2L267.43-21.2Q268.13-22.1 269.53-23.25L269.53-23.25Q272.48-25.6 276.28-25.6 280.08-25.6 282.03-23.43 283.98-21.25 283.98-17.5L283.98-17.5 283.98-3.8 288.43-2.15ZM314.38-16.15L314.38-16.15Q314.38-11.95 311.15-9.4 307.93-6.85 303.38-6.85L303.38-6.85Q300.88-6.85 298.63-7.7L298.63-7.7 296.33-3.55 306.03-3.55Q311.38-3.55 313.78-1.5 316.18 0.55 316.18 4.5 316.18 8.45 312.73 11.2 309.28 13.95 303.08 13.95 296.88 13.95 293.68 11.55 290.48 9.15 290.48 5.48 290.48 1.8 294.08 0.2L294.08 0.2Q291.98-0.5 291.98-2.8L291.98-2.8 292.18-4.05Q295.03-8.4 295.63-9.4L295.63-9.4Q292.38-12 292.38-16.18 292.38-20.35 295.63-22.98 298.88-25.6 303.38-25.6L303.38-25.6Q306.23-25.6 308.88-24.4L308.88-24.4 317.63-25.55 317.48-21.2 312.43-21.65Q314.38-19.3 314.38-16.15ZM294.88 4.95L294.88 4.95Q294.88 7.25 297 8.63 299.13 10 302.98 10 306.83 10 309.1 8.55 311.38 7.1 311.38 4.55L311.38 4.55Q311.38 0.45 306.13 0.45L306.13 0.45 297.23 0.5Q294.88 1.8 294.88 4.95ZM303.38-10.6Q306.48-10.6 308.23-12.25 309.98-13.9 309.98-16.2 309.98-18.5 308.23-20.2 306.48-21.9 303.35-21.9 300.23-21.9 298.53-20.23 296.83-18.55 296.83-16.23 296.83-13.9 298.55-12.25 300.28-10.6 303.38-10.6ZM349.17-2.7L349.17 0 335.02 0 335.02-2.7 339.57-4.35 339.57-31.45 335.02-33.1 335.02-35.3 363.32-35.3 363.32-27.2 360.72-27.2 359.07-31.5 344.62-31.5 344.62-19.6 356.12-19.6 357.07-22.5 359.37-22.5 359.37-12.65 357.07-12.65 356.12-16 344.62-16 344.62-4.35 349.17-2.7ZM391.37-3.4L395.57-3.4 395.57-0.4Q393.62 0.55 391.17 0.55 388.72 0.55 387.77-0.48 386.82-1.5 386.67-3.5L386.67-3.5Q386.02-2.75 385.17-2 384.32-1.25 382.35-0.35 380.37 0.55 378.22 0.55L378.22 0.55Q374.32 0.55 372.37-1.63 370.42-3.8 370.42-7.55L370.42-7.55 370.42-21.65 366.22-21.65 366.22-24.65Q368.17-25.6 370.75-25.6 373.32-25.6 374.22-24.38 375.12-23.15 375.12-20.65L375.12-20.65 375.12-9.3Q375.12-6.35 376.1-4.9 377.07-3.45 379.62-3.45 382.17-3.45 383.97-4.42 385.77-5.4 386.67-6.45L386.67-6.45 386.67-21.65 382.47-21.65 382.47-24.65Q384.42-25.6 387-25.6 389.57-25.6 390.47-24.38 391.37-23.15 391.37-20.65L391.37-20.65 391.37-3.4ZM406.32-10.95Q406.32-6.65 407.62-5.1 408.92-3.55 411.57-3.55 414.22-3.55 415.92-4.35L415.92-4.35 416.92-1.85Q416.72-1.6 416.34-1.2 415.97-0.8 414.47-0.13 412.97 0.55 411.17 0.55L411.17 0.55Q406.62 0.55 404.12-2.02 401.62-4.6 401.62-9.55L401.62-9.55 401.62-21.05 398.97-21.05 398.97-24 403.77-28.8 406.32-28.8 406.32-25 414.72-25 414.72-21.05 406.32-21.05 406.32-10.95ZM443.56-3.4L447.76-3.4 447.76-0.4Q445.81 0.55 443.37 0.55 440.92 0.55 439.97-0.48 439.01-1.5 438.87-3.5L438.87-3.5Q438.22-2.75 437.37-2 436.51-1.25 434.54-0.35 432.56 0.55 430.42 0.55L430.42 0.55Q426.51 0.55 424.56-1.63 422.62-3.8 422.62-7.55L422.62-7.55 422.62-21.65 418.42-21.65 418.42-24.65Q420.37-25.6 422.94-25.6 425.51-25.6 426.42-24.38 427.31-23.15 427.31-20.65L427.31-20.65 427.31-9.3Q427.31-6.35 428.29-4.9 429.26-3.45 431.81-3.45 434.37-3.45 436.17-4.42 437.97-5.4 438.87-6.45L438.87-6.45 438.87-21.65 434.67-21.65 434.67-24.65Q436.62-25.6 439.19-25.6 441.76-25.6 442.67-24.38 443.56-23.15 443.56-20.65L443.56-20.65 443.56-3.4ZM464.36-2.15L464.36 0 451.21 0 451.21-2.15 455.41-3.8 455.41-21.65 451.21-21.65 451.21-24.65Q453.16-25.6 455.61-25.6 458.06-25.6 459.01-24.55 459.96-23.5 460.06-21.45L460.06-21.45Q460.56-22.95 462.11-24.15L462.11-24.15Q463.96-25.6 467.01-25.6L467.01-25.6Q468.36-25.6 469.59-25.25 470.81-24.9 471.36-24.55L471.36-24.55 471.96-24.2 471.96-18.3 468.96-18.3 468.31-21.3Q468.01-21.6 466.66-21.6 465.31-21.6 464.06-21.23 462.81-20.85 462.11-20.3L462.11-20.3Q460.71-19.1 460.11-17.85L460.11-17.85 460.11-3.8 464.36-2.15ZM488.06 0.5L488.06 0.5Q482.41 0.5 478.89-2.73 475.36-5.95 475.36-12.15 475.36-18.35 478.96-21.98 482.56-25.6 487.36-25.6L487.36-25.6Q498.76-25.6 498.76-12.1L498.76-12.1 480.21-12.1 480.21-11.85Q480.21-8.3 482.71-5.85 485.21-3.4 489.51-3.4L489.51-3.4Q491.36-3.4 493.01-3.83 494.66-4.25 495.41-4.7L495.41-4.7 496.11-5.1 497.56-2.5Q497.41-2.4 497.14-2.18 496.86-1.95 495.96-1.45 495.06-0.95 494.01-0.55L494.01-0.55Q491.36 0.5 488.06 0.5ZM494.11-15.3Q493.86-18.4 492.09-20.03 490.31-21.65 487.49-21.65 484.66-21.65 482.81-20.08 480.96-18.5 480.41-15.3L480.41-15.3 494.11-15.3ZM514.65-22.75L514.65-24.95 527.4-24.95 527.4-22.75 524-21.55 529.36-4.7 534.5-21.55 531.11-22.75 531.11-24.95 543.86-24.95 543.86-22.75 539.9-21.45 545.25-4.75 550.4-21.55 547-22.75 547-24.95 559.5-24.95 559.5-22.75 555.5-21.45 547.75 0 542.75 0 537.11-16.7 531.86 0 526.86 0 518.65-21.45 514.65-22.75ZM575.15-2.15L575.15 0 562 0 562-2.15 566.2-3.8 566.2-21.65 562-21.65 562-24.65Q563.95-25.6 566.53-25.6 569.1-25.6 570-24.38 570.9-23.15 570.9-20.65L570.9-20.65 570.9-3.8 575.15-2.15ZM571.1-31.35Q569.95-30.2 568.3-30.2 566.65-30.2 565.5-31.35 564.35-32.5 564.35-34.15 564.35-35.8 565.5-36.95 566.65-38.1 568.3-38.1 569.95-38.1 571.1-36.95 572.25-35.8 572.25-34.15 572.25-32.5 571.1-31.35ZM585.8-10.95Q585.8-6.65 587.1-5.1 588.4-3.55 591.05-3.55 593.7-3.55 595.4-4.35L595.4-4.35 596.4-1.85Q596.2-1.6 595.82-1.2 595.45-0.8 593.95-0.13 592.45 0.55 590.65 0.55L590.65 0.55Q586.1 0.55 583.6-2.02 581.1-4.6 581.1-9.55L581.1-9.55 581.1-21.05 578.45-21.05 578.45-24 583.25-28.8 585.8-28.8 585.8-25 594.2-25 594.2-21.05 585.8-21.05 585.8-10.95ZM628.2-2.15L628.2 0 615.05 0 615.05-2.15 619.05-3.8 619.05-15.75Q619.05-18.7 618.07-20.15 617.1-21.6 614.55-21.6L614.55-21.6Q609.95-21.6 607.2-18.85L607.2-18.85 607.2-3.8 611.45-2.15 611.45 0 598.3 0 598.3-2.15 602.5-3.8 602.5-34.65 598.3-34.65 598.3-37.65Q600.25-38.6 602.82-38.6 605.4-38.6 606.3-37.38 607.2-36.15 607.2-33.65L607.2-33.65 607.2-21.7Q608.25-23.2 610.92-24.4 613.6-25.6 615.95-25.6L615.95-25.6Q619.85-25.6 621.8-23.43 623.75-21.25 623.75-17.5L623.75-17.5 623.75-3.8 628.2-2.15ZM646.09-2.35L646.09-9.5 649.09-9.5 650.49-4.85Q652.44-3.3 656.84-3.3L656.84-3.3Q659.69-3.3 661.42-4.8 663.14-6.3 663.14-8.58 663.14-10.85 661.27-12.88 659.39-14.9 654.84-16.6L654.84-16.6Q646.24-19.85 646.24-25.7L646.24-25.7Q646.24-30.6 649.34-33.18 652.44-35.75 656.94-35.75L656.94-35.75Q662.44-35.75 666.34-33.9L666.34-33.9Q666.79-33.7 667.19-33.45L667.19-33.45 667.19-26.6 664.24-26.5 663.09-30.55Q661.04-31.6 657.74-31.6L657.74-31.6Q650.99-31.6 650.99-27.3L650.99-27.3Q650.99-24.9 652.82-23.33 654.64-21.75 658.49-20.35L658.49-20.35Q667.89-16.9 667.89-9.35L667.89-9.35Q667.89-4.95 664.94-2.2 661.99 0.55 656.39 0.55L656.39 0.55Q653.84 0.55 651.34-0.1L651.34-0.1Q647.69-1.1 646.09-2.35L646.09-2.35ZM685.59 11.4L685.59 13.55 672.44 13.55 672.44 11.4 676.69 9.75 676.69-21.85 672.49-21.85 672.49-24.6Q674.44-25.55 676.76-25.55 679.09-25.55 680.09-24.7 681.09-23.85 681.29-22.2L681.29-22.2Q683.74-25.6 688.59-25.6L688.59-25.6Q692.54-25.6 695.89-22.9L695.89-22.9Q697.59-21.5 698.61-18.93 699.64-16.35 699.64-12.95 699.64-9.55 698.49-6.88 697.34-4.2 695.39-2.65L695.39-2.65Q691.44 0.5 686.19 0.5L686.19 0.5Q684.09 0.5 681.39-0.2L681.39-0.2 681.39 9.75 685.59 11.4ZM686.19-3.45L686.19-3.45Q690.24-3.45 692.51-5.85 694.79-8.25 694.79-12.55 694.79-16.85 692.59-19.28 690.39-21.7 687.89-21.7L687.89-21.7Q683.54-21.7 681.39-18.95L681.39-18.95 681.39-4.35Q684.19-3.45 686.19-3.45ZM717.04 0.5L717.04 0.5Q711.39 0.5 707.86-2.73 704.34-5.95 704.34-12.15 704.34-18.35 707.94-21.98 711.54-25.6 716.34-25.6L716.34-25.6Q727.74-25.6 727.74-12.1L727.74-12.1 709.19-12.1 709.19-11.85Q709.19-8.3 711.69-5.85 714.19-3.4 718.49-3.4L718.49-3.4Q720.34-3.4 721.99-3.83 723.64-4.25 724.39-4.7L724.39-4.7 725.09-5.1 726.54-2.5Q726.39-2.4 726.11-2.18 725.84-1.95 724.94-1.45 724.04-0.95 722.99-0.55L722.99-0.55Q720.34 0.5 717.04 0.5ZM723.09-15.3Q722.84-18.4 721.06-20.03 719.29-21.65 716.46-21.65 713.64-21.65 711.79-20.08 709.94-18.5 709.39-15.3L709.39-15.3 723.09-15.3ZM744.78 0.5L744.78 0.5Q739.13 0.5 735.61-2.73 732.08-5.95 732.08-12.15 732.08-18.35 735.68-21.98 739.28-25.6 744.08-25.6L744.08-25.6Q755.48-25.6 755.48-12.1L755.48-12.1 736.93-12.1 736.93-11.85Q736.93-8.3 739.43-5.85 741.93-3.4 746.23-3.4L746.23-3.4Q748.08-3.4 749.73-3.83 751.38-4.25 752.13-4.7L752.13-4.7 752.83-5.1 754.28-2.5Q754.13-2.4 753.86-2.18 753.58-1.95 752.68-1.45 751.78-0.95 750.73-0.55L750.73-0.55Q748.08 0.5 744.78 0.5ZM750.83-15.3Q750.58-18.4 748.81-20.03 747.03-21.65 744.21-21.65 741.38-21.65 739.53-20.08 737.68-18.5 737.13-15.3L737.13-15.3 750.83-15.3ZM782.73-3.4L786.93-3.4 786.93-0.4Q784.98 0.55 782.66 0.55 780.33 0.55 779.31-0.3 778.28-1.15 778.08-2.8L778.08-2.8Q775.78 0.5 770.88 0.5L770.88 0.5Q766.93 0.5 763.58-2.2L763.58-2.2Q761.88-3.6 760.86-6.18 759.83-8.75 759.83-12.15 759.83-15.55 761.18-18.23 762.53-20.9 764.73-22.45L764.73-22.45Q769.18-25.6 774.58-25.6L774.58-25.6Q776.18-25.6 778.03-24.9L778.03-24.9 778.03-34.65 773.83-34.65 773.83-37.65Q775.78-38.6 778.36-38.6 780.93-38.6 781.83-37.38 782.73-36.15 782.73-33.65L782.73-33.65 782.73-3.4ZM774.58-21.65L774.58-21.65Q770.13-21.65 767.41-19.23 764.68-16.8 764.68-12.4 764.68-8 766.86-5.58 769.03-3.15 771.58-3.15L771.58-3.15Q775.88-3.15 778.03-6.3L778.03-6.3 778.03-20.9Q775.78-21.65 774.58-21.65ZM825.03-3.4L829.23-3.4 829.23-0.4Q827.28 0.55 824.93 0.55 822.58 0.55 821.55-0.35 820.53-1.25 820.38-2.95L820.38-2.95Q817.63 0.55 813.15 0.55 808.68 0.55 806.38-1.25 804.08-3.05 804.08-6.3L804.08-6.3Q804.08-12.55 812.78-13.5L812.78-13.5 820.33-14.3 820.33-15.75Q820.33-18.65 819.13-20.15 817.93-21.65 815.33-21.65L815.33-21.65Q810.53-21.65 807.53-20.6L807.53-20.6 806.53-20.25 805.63-23.45Q807.03-24.25 809.88-24.93 812.73-25.6 815.18-25.6L815.18-25.6Q820.53-25.6 822.78-23.48 825.03-21.35 825.03-17.5L825.03-17.5 825.03-3.4ZM813.03-10.25Q811.13-10 810-9.1 808.88-8.2 808.88-6.68 808.88-5.15 810.1-4.28 811.33-3.4 813.53-3.4L813.53-3.4Q817.68-3.4 820.33-5.65L820.33-5.65 820.33-11.05 813.03-10.25ZM862.17-2.15L862.17 0 849.02 0 849.02-2.15 853.02-3.8 853.02-15.75Q853.02-18.7 852.05-20.15 851.07-21.6 848.52-21.6L848.52-21.6Q844.42-21.6 841.17-18.35L841.17-18.35 841.17-3.8 845.42-2.15 845.42 0 832.27 0 832.27-2.15 836.47-3.8 836.47-21.65 832.27-21.65 832.27-24.65Q834.22-25.6 836.72-25.6 839.22-25.6 840.15-24.5 841.07-23.4 841.17-21.2L841.17-21.2Q841.87-22.1 843.27-23.25L843.27-23.25Q846.22-25.6 850.02-25.6 853.82-25.6 855.77-23.43 857.72-21.25 857.72-17.5L857.72-17.5 857.72-3.8 862.17-2.15ZM888.22-3.4L892.42-3.4 892.42-0.4Q890.47 0.55 888.15 0.55 885.82 0.55 884.8-0.3 883.77-1.15 883.57-2.8L883.57-2.8Q881.27 0.5 876.37 0.5L876.37 0.5Q872.42 0.5 869.07-2.2L869.07-2.2Q867.37-3.6 866.35-6.18 865.32-8.75 865.32-12.15 865.32-15.55 866.67-18.23 868.02-20.9 870.22-22.45L870.22-22.45Q874.67-25.6 880.07-25.6L880.07-25.6Q881.67-25.6 883.52-24.9L883.52-24.9 883.52-34.65 879.32-34.65 879.32-37.65Q881.27-38.6 883.85-38.6 886.42-38.6 887.32-37.38 888.22-36.15 888.22-33.65L888.22-33.65 888.22-3.4ZM880.07-21.65L880.07-21.65Q875.62-21.65 872.9-19.23 870.17-16.8 870.17-12.4 870.17-8 872.35-5.58 874.52-3.15 877.07-3.15L877.07-3.15Q881.37-3.15 883.52-6.3L883.52-6.3 883.52-20.9Q881.27-21.65 880.07-21.65ZM910.97-2.35L910.97-9.5 913.97-9.5 915.37-4.85Q917.32-3.3 921.72-3.3L921.72-3.3Q924.57-3.3 926.29-4.8 928.02-6.3 928.02-8.58 928.02-10.85 926.14-12.88 924.27-14.9 919.72-16.6L919.72-16.6Q911.12-19.85 911.12-25.7L911.12-25.7Q911.12-30.6 914.22-33.18 917.32-35.75 921.82-35.75L921.82-35.75Q927.32-35.75 931.22-33.9L931.22-33.9Q931.67-33.7 932.07-33.45L932.07-33.45 932.07-26.6 929.12-26.5 927.97-30.55Q925.92-31.6 922.62-31.6L922.62-31.6Q915.87-31.6 915.87-27.3L915.87-27.3Q915.87-24.9 917.69-23.33 919.52-21.75 923.37-20.35L923.37-20.35Q932.77-16.9 932.77-9.35L932.77-9.35Q932.77-4.95 929.82-2.2 926.87 0.55 921.27 0.55L921.27 0.55Q918.72 0.55 916.22-0.1L916.22-0.1Q912.57-1.1 910.97-2.35L910.97-2.35ZM951.21-2.15L951.21 0 938.06 0 938.06-2.15 942.26-3.8 942.26-21.65 938.06-21.65 938.06-24.65Q940.01-25.6 942.59-25.6 945.16-25.6 946.06-24.38 946.96-23.15 946.96-20.65L946.96-20.65 946.96-3.8 951.21-2.15ZM947.16-31.35Q946.01-30.2 944.36-30.2 942.71-30.2 941.56-31.35 940.41-32.5 940.41-34.15 940.41-35.8 941.56-36.95 942.71-38.1 944.36-38.1 946.01-38.1 947.16-36.95 948.31-35.8 948.31-34.15 948.31-32.5 947.16-31.35ZM1000.36-2.15L1000.36 0 987.21 0 987.21-2.15 991.21-3.8 991.21-15.75Q991.21-18.7 990.24-20.15 989.26-21.6 986.71-21.6L986.71-21.6Q982.71-21.6 979.86-18.75L979.86-18.75Q980.01-18.15 980.01-17.5L980.01-17.5 980.01-3.8 984.46-2.15 984.46 0 971.31 0 971.31-2.15 975.31-3.8 975.31-15.75Q975.31-18.7 974.34-20.15 973.36-21.6 970.81-21.6L970.81-21.6Q966.71-21.6 963.46-18.35L963.46-18.35 963.46-3.8 967.71-2.15 967.71 0 954.56 0 954.56-2.15 958.76-3.8 958.76-21.65 954.56-21.65 954.56-24.65Q956.51-25.6 959.01-25.6 961.51-25.6 962.44-24.5 963.36-23.4 963.46-21.2L963.46-21.2Q964.16-22.1 965.56-23.25L965.56-23.25Q968.51-25.6 972.21-25.6L972.21-25.6Q977.71-25.6 979.41-21.2L979.41-21.2Q983.06-25.6 988.11-25.6L988.11-25.6Q992.01-25.6 993.96-23.43 995.91-21.25 995.91-17.5L995.91-17.5 995.91-3.8 1000.36-2.15ZM1015.71 11.4L1015.71 13.55 1002.56 13.55 1002.56 11.4 1006.81 9.75 1006.81-21.85 1002.61-21.85 1002.61-24.6Q1004.56-25.55 1006.88-25.55 1009.21-25.55 1010.21-24.7 1011.21-23.85 1011.41-22.2L1011.41-22.2Q1013.86-25.6 1018.71-25.6L1018.71-25.6Q1022.66-25.6 1026.01-22.9L1026.01-22.9Q1027.71-21.5 1028.73-18.93 1029.76-16.35 1029.76-12.95 1029.76-9.55 1028.61-6.88 1027.46-4.2 1025.51-2.65L1025.51-2.65Q1021.56 0.5 1016.31 0.5L1016.31 0.5Q1014.21 0.5 1011.51-0.2L1011.51-0.2 1011.51 9.75 1015.71 11.4ZM1016.31-3.45L1016.31-3.45Q1020.36-3.45 1022.63-5.85 1024.91-8.25 1024.91-12.55 1024.91-16.85 1022.71-19.28 1020.51-21.7 1018.01-21.7L1018.01-21.7Q1013.66-21.7 1011.51-18.95L1011.51-18.95 1011.51-4.35Q1014.31-3.45 1016.31-3.45ZM1046.71-2.15L1046.71 0 1033.56 0 1033.56-2.15 1037.76-3.8 1037.76-34.65 1033.56-34.65 1033.56-37.65Q1035.51-38.6 1038.08-38.6 1040.66-38.6 1041.56-37.38 1042.46-36.15 1042.46-33.65L1042.46-33.65 1042.46-3.8 1046.71-2.15ZM1063.4-2.15L1063.4 0 1050.25 0 1050.25-2.15 1054.45-3.8 1054.45-21.65 1050.25-21.65 1050.25-24.65Q1052.2-25.6 1054.78-25.6 1057.35-25.6 1058.25-24.38 1059.15-23.15 1059.15-20.65L1059.15-20.65 1059.15-3.8 1063.4-2.15ZM1059.35-31.35Q1058.2-30.2 1056.55-30.2 1054.9-30.2 1053.75-31.35 1052.6-32.5 1052.6-34.15 1052.6-35.8 1053.75-36.95 1054.9-38.1 1056.55-38.1 1058.2-38.1 1059.35-36.95 1060.5-35.8 1060.5-34.15 1060.5-32.5 1059.35-31.35ZM1079.7 0.5L1079.7 0.5Q1074.15 0.5 1070.58-2.75 1067-6 1067-12.15L1067-12.15Q1067-15.55 1068.35-18.23 1069.7-20.9 1071.9-22.45L1071.9-22.45Q1076.45-25.6 1081.85-25.6L1081.85-25.6Q1083.5-25.6 1085.1-25.2 1086.7-24.8 1087.5-24.4L1087.5-24.4 1088.3-23.95 1088.3-18.05 1085.25-18.05 1084.55-21.1Q1083.85-21.65 1081.85-21.65L1081.85-21.65Q1077.55-21.65 1074.7-19.05 1071.85-16.45 1071.85-12.5 1071.85-8.55 1074.33-5.98 1076.8-3.4 1080.9-3.4L1080.9-3.4Q1082.9-3.4 1084.63-3.83 1086.35-4.25 1087.05-4.7L1087.05-4.7 1087.75-5.1 1089.2-2.5Q1089.05-2.4 1088.78-2.18 1088.5-1.95 1087.6-1.45 1086.7-0.95 1085.7-0.55L1085.7-0.55Q1083 0.5 1079.7 0.5ZM1106.15-2.15L1106.15 0 1093 0 1093-2.15 1097.2-3.8 1097.2-21.65 1093-21.65 1093-24.65Q1094.95-25.6 1097.52-25.6 1100.1-25.6 1101-24.38 1101.9-23.15 1101.9-20.65L1101.9-20.65 1101.9-3.8 1106.15-2.15ZM1102.1-31.35Q1100.95-30.2 1099.3-30.2 1097.65-30.2 1096.5-31.35 1095.35-32.5 1095.35-34.15 1095.35-35.8 1096.5-36.95 1097.65-38.1 1099.3-38.1 1100.95-38.1 1102.1-36.95 1103.25-35.8 1103.25-34.15 1103.25-32.5 1102.1-31.35ZM1116.8-10.95Q1116.8-6.65 1118.1-5.1 1119.4-3.55 1122.05-3.55 1124.7-3.55 1126.4-4.35L1126.4-4.35 1127.4-1.85Q1127.2-1.6 1126.82-1.2 1126.45-0.8 1124.95-0.13 1123.45 0.55 1121.65 0.55L1121.65 0.55Q1117.1 0.55 1114.6-2.02 1112.1-4.6 1112.1-9.55L1112.1-9.55 1112.1-21.05 1109.45-21.05 1109.45-24 1114.25-28.8 1116.8-28.8 1116.8-25 1125.2-25 1125.2-21.05 1116.8-21.05 1116.8-10.95ZM1127.79-22.75L1127.79-24.95 1140.79-24.95 1140.79-22.75 1137.39-21.55 1143.89-5.1 1149.89-21.55 1146.49-22.75 1146.49-24.95 1158.99-24.95 1158.99-22.75 1154.99-21.45 1143.79 5.3Q1142.19 9.1 1139.82 11.35 1137.44 13.6 1133.49 13.6L1133.49 13.6Q1131.69 13.6 1130.32 13.05 1128.94 12.5 1128.49 12L1128.49 12 1128.04 11.45 1129.39 8.7Q1130.89 9.5 1133.49 9.5L1133.49 9.5Q1137.99 9.5 1140.39 3.1L1140.39 3.1 1141.54 0.05 1131.79-21.45 1127.79-22.75Z" opacity="1" transform="matrix(1,0,0,1,0,0)" fill="#505050" class="slogan-text-1" data-fill-palette-color="secondary" id="text-1"></path></svg></g></svg></g></svg></g></svg></g><g><svg viewBox="0 0 129.18671999999998 120.92164073599997" height="120.92164073599997" width="129.18671999999998"><g><svg xmlns="http://www.w3.org/2000/svg" xmlns:xlink="http://www.w3.org/1999/xlink" version="1.1" x="0" y="0" viewBox="5 7.879 90 84.24199999999999" enable-background="new 0 0 100 100" xml:space="preserve" height="120.92164073599997" width="129.18671999999998" class="icon-icon-0" data-fill-palette-color="accent" id="icon-0"><path d="M87.397 79.588V73.014H81.027V44.937H92.326L92.948 35.003 49.998 7.879 7.057 35.001 7.67 44.936H18.974V73.014H12.603V79.588H5V92.121H95V79.588zM28.53 73.014V44.937H35.209V73.014zM49.998 73.014H44.761V44.937H55.238V73.014zM64.794 73.014V44.937H71.474V73.014z" fill="#f39361" data-fill-palette-color="accent"></path></svg></g></svg></g></svg></g></svg></g></svg></g><defs></defs></svg><rect width="320" height="360" fill="none" stroke="none" visibility="hidden"></rect></g></svg></g></svg>